<mxfile host="app.diagrams.net" agent="Mozilla/5.0 (Windows NT 10.0; Win64; x64) AppleWebKit/537.36 (KHTML, like Gecko) Chrome/134.0.0.0 Safari/537.36" version="26.2.9">
  <diagram name="第 1 页" id="Tx8X1TVn83_RSNEOZVL1">
    <mxGraphModel dx="1185" dy="714" grid="1" gridSize="10" guides="1" tooltips="1" connect="1" arrows="1" fold="1" page="1" pageScale="1" pageWidth="827" pageHeight="1169" math="0" shadow="0">
      <root>
        <mxCell id="0" />
        <mxCell id="1" parent="0" />
        <mxCell id="edLxQsJdvKGWR60teC_g-5" value="" style="group" vertex="1" connectable="0" parent="1">
          <mxGeometry x="90" y="70" width="590" height="60" as="geometry" />
        </mxCell>
        <mxCell id="edLxQsJdvKGWR60teC_g-1" value="&lt;font style=&quot;font-size: 12px;&quot;&gt;应用层&lt;/font&gt;" style="rounded=0;whiteSpace=wrap;html=1;" vertex="1" parent="edLxQsJdvKGWR60teC_g-5">
          <mxGeometry width="120" height="60" as="geometry" />
        </mxCell>
        <mxCell id="edLxQsJdvKGWR60teC_g-2" value="" style="rounded=1;whiteSpace=wrap;html=1;" vertex="1" parent="edLxQsJdvKGWR60teC_g-5">
          <mxGeometry x="150" width="440" height="60" as="geometry" />
        </mxCell>
        <mxCell id="edLxQsJdvKGWR60teC_g-3" value="微信小程序" style="rounded=1;whiteSpace=wrap;html=1;" vertex="1" parent="edLxQsJdvKGWR60teC_g-5">
          <mxGeometry x="240" y="10" width="100" height="40" as="geometry" />
        </mxCell>
        <mxCell id="edLxQsJdvKGWR60teC_g-4" value="web管理后台" style="rounded=1;whiteSpace=wrap;html=1;" vertex="1" parent="edLxQsJdvKGWR60teC_g-5">
          <mxGeometry x="410" y="10" width="100" height="40" as="geometry" />
        </mxCell>
        <mxCell id="edLxQsJdvKGWR60teC_g-12" value="" style="group" vertex="1" connectable="0" parent="1">
          <mxGeometry x="90" y="430" width="590" height="60" as="geometry" />
        </mxCell>
        <mxCell id="edLxQsJdvKGWR60teC_g-7" value="&lt;font style=&quot;font-size: 12px;&quot;&gt;数据层&lt;/font&gt;" style="rounded=0;whiteSpace=wrap;html=1;" vertex="1" parent="edLxQsJdvKGWR60teC_g-12">
          <mxGeometry width="120" height="60" as="geometry" />
        </mxCell>
        <mxCell id="edLxQsJdvKGWR60teC_g-8" value="" style="rounded=1;whiteSpace=wrap;html=1;" vertex="1" parent="edLxQsJdvKGWR60teC_g-12">
          <mxGeometry x="150" width="440" height="60" as="geometry" />
        </mxCell>
        <mxCell id="edLxQsJdvKGWR60teC_g-9" value="Redis" style="rounded=1;whiteSpace=wrap;html=1;" vertex="1" parent="edLxQsJdvKGWR60teC_g-12">
          <mxGeometry x="190" y="10" width="100" height="40" as="geometry" />
        </mxCell>
        <mxCell id="edLxQsJdvKGWR60teC_g-10" value="Minio" style="rounded=1;whiteSpace=wrap;html=1;" vertex="1" parent="edLxQsJdvKGWR60teC_g-12">
          <mxGeometry x="450" y="10" width="100" height="40" as="geometry" />
        </mxCell>
        <mxCell id="edLxQsJdvKGWR60teC_g-11" value="MySQL" style="rounded=1;whiteSpace=wrap;html=1;" vertex="1" parent="edLxQsJdvKGWR60teC_g-12">
          <mxGeometry x="320" y="10" width="100" height="40" as="geometry" />
        </mxCell>
        <mxCell id="edLxQsJdvKGWR60teC_g-21" value="" style="group" vertex="1" connectable="0" parent="1">
          <mxGeometry x="90" y="160" width="590" height="140" as="geometry" />
        </mxCell>
        <mxCell id="edLxQsJdvKGWR60teC_g-13" value="服务层" style="rounded=0;whiteSpace=wrap;html=1;" vertex="1" parent="edLxQsJdvKGWR60teC_g-21">
          <mxGeometry width="120" height="140" as="geometry" />
        </mxCell>
        <mxCell id="edLxQsJdvKGWR60teC_g-14" value="" style="rounded=1;whiteSpace=wrap;html=1;" vertex="1" parent="edLxQsJdvKGWR60teC_g-21">
          <mxGeometry x="150" width="440" height="140" as="geometry" />
        </mxCell>
        <mxCell id="edLxQsJdvKGWR60teC_g-15" value="用户服务" style="rounded=1;whiteSpace=wrap;html=1;" vertex="1" parent="edLxQsJdvKGWR60teC_g-21">
          <mxGeometry x="180" y="20" width="100" height="40" as="geometry" />
        </mxCell>
        <mxCell id="edLxQsJdvKGWR60teC_g-16" value="商家服务" style="rounded=1;whiteSpace=wrap;html=1;" vertex="1" parent="edLxQsJdvKGWR60teC_g-21">
          <mxGeometry x="320" y="20" width="100" height="40" as="geometry" />
        </mxCell>
        <mxCell id="edLxQsJdvKGWR60teC_g-17" value="订单服务" style="rounded=1;whiteSpace=wrap;html=1;" vertex="1" parent="edLxQsJdvKGWR60teC_g-21">
          <mxGeometry x="460" y="20" width="100" height="40" as="geometry" />
        </mxCell>
        <mxCell id="edLxQsJdvKGWR60teC_g-18" value="菜品服务" style="rounded=1;whiteSpace=wrap;html=1;" vertex="1" parent="edLxQsJdvKGWR60teC_g-21">
          <mxGeometry x="180" y="80" width="100" height="40" as="geometry" />
        </mxCell>
        <mxCell id="edLxQsJdvKGWR60teC_g-19" value="评价反馈服务" style="rounded=1;whiteSpace=wrap;html=1;" vertex="1" parent="edLxQsJdvKGWR60teC_g-21">
          <mxGeometry x="320" y="80" width="100" height="40" as="geometry" />
        </mxCell>
        <mxCell id="edLxQsJdvKGWR60teC_g-20" value="数据分析服务" style="rounded=1;whiteSpace=wrap;html=1;" vertex="1" parent="edLxQsJdvKGWR60teC_g-21">
          <mxGeometry x="460" y="80" width="100" height="40" as="geometry" />
        </mxCell>
        <mxCell id="edLxQsJdvKGWR60teC_g-25" value="" style="group" vertex="1" connectable="0" parent="1">
          <mxGeometry x="90" y="330" width="590" height="60" as="geometry" />
        </mxCell>
        <mxCell id="edLxQsJdvKGWR60teC_g-22" value="持久层" style="rounded=0;whiteSpace=wrap;html=1;" vertex="1" parent="edLxQsJdvKGWR60teC_g-25">
          <mxGeometry width="120" height="60" as="geometry" />
        </mxCell>
        <mxCell id="edLxQsJdvKGWR60teC_g-23" value="" style="rounded=1;whiteSpace=wrap;html=1;" vertex="1" parent="edLxQsJdvKGWR60teC_g-25">
          <mxGeometry x="150" width="440" height="60" as="geometry" />
        </mxCell>
        <mxCell id="edLxQsJdvKGWR60teC_g-24" value="Mybatis-Plus" style="rounded=1;whiteSpace=wrap;html=1;" vertex="1" parent="edLxQsJdvKGWR60teC_g-25">
          <mxGeometry x="320" y="10" width="100" height="40" as="geometry" />
        </mxCell>
      </root>
    </mxGraphModel>
  </diagram>
</mxfile>
